<svg xmlns="http://www.w3.org/2000/svg" width="259.338" height="133.466" viewBox="0 0 259.338 133.466"><path d="M16.22 1.3C20.85-.41 25.84.07 30.68.03q102.51.015 205.028.01c12.48-.11 23.56 10.92 23.61 23.38q.03 43.47 0 86.95c-.24 11.24-9.42 21.59-20.62 22.87-7.66.05-15.32.42-22.97.08q-96 .03-192.01.02c-12.67.63-24.38-11.21-23.69-23.87q.015-42.99.01-85.98c-.3-9.89 6.94-19.12 16.18-22.19z" fill="#f47a12" /><path d="M20.39 8.423A19.64 19.64 0 0 1 24.72 8q105.45.045 210.9.03c8.19-.01 15.56 7.13 15.65 15.35.08 28.71.01 57.42.03 86.13.26 8.82-7.88 16.42-16.57 16.16q-105 0-210.01.01c-8.71.38-17.23-7.3-16.76-16.2q.044-41.01 0-82.01c.07-3.24-.37-6.68 1.16-9.68a16.324 16.324 0 0 1 11.27-9.37z" /><path d="M109.3 25.793q3.945.015 7.9-.01c5.24 12.09 10.27 24.25 15.52 36.33-3 .06-5.99.06-8.99.01-.93-2.68-2-5.31-3.09-7.94-5.1-.11-10.2-.02-15.3-.08q-1.56 4.08-3.32 8.08c-2.82-.02-5.64-.02-8.45-.04 5.3-12.09 10.6-24.19 15.73-36.35zm32.91 3.17c6.84-4.84 16.2-4.52 23.43-.73-.09 2.53-.11 5.06-.08 7.59-5.36-3.33-12.79-4.53-18.21-.71-5.59 3.63-6.18 12.54-1.34 17.04 4.72 4.63 12.54 3.76 17.79.51 1.28 1.97 2.58 3.94 3.9 5.89-5.13 3.9-11.89 4.85-18.13 3.88-8.18-1.22-14.75-8.75-15.26-16.94a18.875 18.875 0 0 1 7.9-16.53zM26.03 62.183c.06-12.08-.04-24.15.05-36.23 5.87.15 11.74-.06 17.61.1 4.26.09 9.11 2.09 10.53 6.46 1.74 4-.63 8.16-3.51 10.87a9.277 9.277 0 0 1 5.85 9.13c-.434 6.576-5 9.18-9.93 9.51-6.86.33-13.74.02-20.6.16zm38.99-.02q.03-18.075 0-36.15 4.02-.015 8.04 0c-.03 9.61-.01 19.22-.02 28.83 6 .01 11.99-.01 17.99.01q.014 3.615.06 7.24c-8.69.15-17.38.02-26.07.07zm108.01-.01c.09-12.06.03-24.12.03-36.17 2.66.01 5.33.03 8 .04.01 5.22-.04 10.43 0 15.65 4.648-5.12 9.06-10.44 13.61-15.64 3.618-.05 7.23-.05 10.84.03q-8.13 8.64-16.07 17.45c5.39 6.37 11.17 12.38 16.75 18.58-3.67.1-7.33.11-10.99-.01-4.5-5.48-9.3-10.71-14.1-15.92-.11 5.32-.04 10.63-.01 15.95-2.69.05-5.382.05-8.062.04zm60.3-21.84h-4.63c-1.608-.04-3.22-.03-4.83 0 .05-3.02.06-6.05.06-9.07q-3.75 0-7.49.01c-.05 3.01-.03 6.03.018 9.05q-4.59.03-9.17.02-.075 3.675-.07 7.37 4.6-.015 9.22-.02c0 3.12-.02 6.24-.04 9.36 2.51.01 5.03.01 7.54.01-.01-3.13-.03-6.25-.04-9.37l9.27.05q.1-3.57.16-7.14h-.006z" fill="#f47a12" /><path d="M112.81 35.473c1.95 3.83 3.36 7.9 4.95 11.89q-4.86-.015-9.72.02c1.58-3.98 3.42-7.85 4.77-11.91z" /><path d="M108.79 71.824c6.04-2.16 12.71-.99 18.52 1.36.07 2.62.1 5.25.12 7.88-5.39-3.09-12.56-4.57-18.04-.86-5.59 3.44-6.66 11.99-2.11 16.72 4.65 5.25 12.9 4.45 18.4.99q1.83 2.955 3.79 5.82c-8.32 6.29-21.96 6.09-28.87-2.25-4.69-5.1-5.53-12.94-3.06-19.25a19.18 19.18 0 0 1 11.25-10.41zm-82.76 35.5c.07-12.04-.06-24.08.07-36.11 7.79.43 16.13-1.28 23.38 2.46a17.91 17.91 0 0 1-6.06 33.48c-5.79.35-11.59.06-17.39.17zm38.98-.01c.09-12.04-.08-24.08.09-36.12 8.64.12 17.28.03 25.92.05.02 2.35.03 4.71.06 7.06-6.05.17-12.1-.17-18.14.17.03 2.41.09 4.83.22 7.24 5.29-.16 10.58-.09 15.88-.07-.02 2.34-.02 4.69-.03 7.03q-8.01.014-16.01-.01v7.59q9.12-.016 18.24 0c0 2.36-.01 4.73-.02 7.09-8.73-.07-17.47-.03-26.21-.03zm69.87.02c.12-12.06-.2-24.13.15-36.18 2.62.07 5.25.1 7.88.12.02 5.26-.09 10.52.09 15.79 4.47-5.37 8.94-10.75 13.73-15.84 3.52.04 7.03.02 10.55-.01-5.3 5.93-10.8 11.69-16.07 17.67 5.46 6.21 11.22 12.16 16.6 18.44-3.58.017-7.15 0-10.73-.07-4.7-5.28-9.31-10.65-14.14-15.8-.09 5.27-.01 10.55-.03 15.83q-4.02.027-8.03.05zm38.16-.01c.1-12.04-.05-24.09.08-36.13 8.64.12 17.29.02 25.93.05.01 2.36.01 4.73.02 7.09-6.03.02-12.05-.06-18.07.05-.03 2.45.02 4.9.18 7.35 5.29-.2 10.59-.11 15.88-.08 0 2.34-.01 4.68-.01 7.02q-8.04.016-16.06-.01.014 3.8.05 7.6c6.04-.05 12.09.05 18.13-.09.06 2.39.1 4.772.12 7.16q-13.126-.06-26.25-.01zm54.12-12.64a16.855 16.855 0 0 0 5.09-2.59c6-4.97 4.94-16.41-2.63-19.3a20.612 20.612 0 0 0-3.51-1.04c-.116-.025-.215-.053-.346-.077l-.062-.01a38.524 38.524 0 0 0-7.854-.513c-5.22-.088-10.658.078-10.658.078q-.03 18.045 0 36.11c2.66-.03 5.33-.03 7.99-.02.03-4.14 0-8.27.04-12.41.65.1 1.94.31 2.58.41 3.65 3.47 6.07 8.02 9.49 11.71 3.32.67 6.8.12 10.18.29-3.39-4.248-6.84-8.45-10.31-12.64z" fill="#f47a12" /><path d="M33.96 78.6c3.71.15 7.77-.64 11.15 1.31 6.61 3.38 7.07 13.94 1.19 18.25-3.46 2.84-8.24 1.83-12.35 2 .05-7.19.03-14.37.01-21.56zm181.24-.007c3.48.24 7.27-.65 10.54.84 3.13 1.52 2.92 6.51-.17 7.94-3.27 1.41-6.99.66-10.44.72.07-3.17.08-6.33.07-9.5zM33.84 33.013s13.537-1.487 12.81 3.828c0 0 .79 3.855-5.588 3.79l-7.173.065zm.03 14.21s15.444-1.26 14.944 3.67c0 0 .617 4.42-5.192 4.152l-9.784.028z" /></svg>