<?xml version="1.0" encoding="UTF-8"?><svg width="177px" height="35px" viewBox="0 0 177 35" version="1.1" xmlns="http://www.w3.org/2000/svg" xmlns:xlink="http://www.w3.org/1999/xlink"><title>dimplex</title><desc>Created with Sketch.</desc><defs></defs><g id="Page-1" stroke="none" stroke-width="1" fill="none" fill-rule="evenodd"><g id="dimplex" fill="#D9262F" fill-rule="nonzero"><path d="M41.476,27.877 L52.395,27.877 C60.122,27.877 63.881,21.941 63.881,13.959 C63.881,4.824 58.952,0.351 52.395,0.351 L41.476,0.351 L41.476,27.877 Z M47.041,5.442 L51.011,5.442 C56.541,5.442 58.314,8.986 58.314,14.538 C58.314,20.63 55.23,22.789 52.004,22.789 L47.041,22.789 L47.041,5.442 Z M67.273,27.877 L72.306,27.877 L72.306,7.946 L67.273,7.946 L67.273,27.877 Z M67.273,4.863 L72.306,4.863 L72.306,0.353 L67.273,0.353 L67.273,4.863 Z M76.336,27.877 L81.371,27.877 L81.371,16.313 C81.371,12.418 83.781,11.723 84.772,11.723 C87.965,11.723 87.822,14.384 87.822,16.697 L87.822,27.877 L92.855,27.877 L92.855,16.774 C92.855,14.269 93.386,11.723 96.224,11.723 C99.094,11.723 99.308,13.921 99.308,16.581 L99.308,27.877 L104.341,27.877 L104.341,14.538 C104.341,9.372 101.541,7.406 97.642,7.406 C95.088,7.406 93.175,8.986 92.111,10.722 C91.119,8.331 89.063,7.406 86.758,7.406 C84.384,7.406 82.469,8.602 81.158,10.645 L81.087,10.645 L81.087,7.946 L76.336,7.946 L76.336,27.877 Z M108.225,34.894 L113.258,34.894 L113.258,25.409 L113.328,25.409 C114.532,27.376 116.625,28.418 118.822,28.418 C124.175,28.418 126.87,23.444 126.87,18.123 C126.87,12.456 124.282,7.406 118.538,7.406 C116.271,7.406 114.285,8.371 113.08,10.492 L113.01,10.492 L113.01,7.946 L108.225,7.946 L108.225,34.894 Z M117.475,24.292 C114.214,24.292 113.08,21.209 113.08,17.969 C113.08,14.732 114.144,11.532 117.441,11.532 C120.667,11.532 121.835,14.809 121.835,17.969 C121.835,21.209 120.772,24.292 117.475,24.292 Z M129.941,27.877 L134.974,27.877 L134.974,0.353 L129.941,0.353 L129.941,27.877 Z M156.231,19.242 C156.585,13.111 153.573,7.406 147.333,7.406 C141.769,7.406 137.976,11.956 137.976,17.931 C137.976,24.1 141.555,28.418 147.333,28.418 C151.482,28.418 154.495,26.413 155.913,21.708 L151.482,21.708 C151.162,22.942 149.533,24.292 147.51,24.292 C144.711,24.292 143.152,22.712 143.009,19.242 L156.231,19.242 Z M143.009,15.772 C143.08,14.23 144.002,11.532 147.192,11.532 C149.637,11.532 150.737,12.996 151.198,15.772 L143.009,15.772 Z M157.216,27.877 L162.853,27.877 L166.681,21.593 L170.51,27.877 L176.252,27.877 L169.481,17.276 L175.509,7.946 L169.942,7.946 L166.752,13.15 L163.525,7.946 L157.783,7.946 L163.81,17.391 L157.216,27.877 Z" id="Fill-2"></path><path d="M0.504,14.079 C0.504,10.697 3.243,7.957 6.626,7.957 C10.006,7.957 12.748,10.697 12.748,14.079 C12.748,17.459 10.006,20.201 6.626,20.201 C3.243,20.201 0.504,17.459 0.504,14.079" id="Fill-3"></path><path d="M1.179,5.926 L1.183,0.473 C1.183,0.473 4.707,0.473 6.626,0.473 C14.138,0.473 20.23,6.564 20.23,14.079 C20.23,21.591 14.138,27.683 6.626,27.683 C4.708,27.683 1.183,27.683 1.183,27.683 L1.183,22.24 L6.626,22.24 C11.133,22.24 14.787,18.587 14.787,14.079 C14.787,9.569 11.133,5.916 6.626,5.916 L1.179,5.926" id="Fill-4"></path><path d="M33.839,5.926 L33.834,0.473 C33.834,0.473 30.311,0.473 28.391,0.473 C20.879,0.473 14.787,6.564 14.787,14.079 C14.787,21.591 20.879,27.683 28.391,27.683 C30.309,27.683 33.834,27.683 33.834,27.683 L33.834,22.24 L28.391,22.24 C23.884,22.24 20.23,18.587 20.23,14.079 C20.23,9.569 23.884,5.916 28.391,5.916 L33.839,5.926" id="Fill-5"></path></g></g></svg>