<?xml version="1.0" encoding="UTF-8" standalone="no"?><!DOCTYPE svg PUBLIC "-//W3C//DTD SVG 1.1//EN" "http://www.w3.org/Graphics/SVG/1.1/DTD/svg11.dtd"[]><svg xmlns="http://www.w3.org/2000/svg" version="1.1" viewBox="0 0 1801 582" width="1801.0pt" height="582.0pt"><path d="M 0.00 0.00 L 582.10 0.00 C 582.10 194.00 582.10 388.00 582.10 582.00 L 0.00 582.00 L 0.00 0.00 Z" fill="#e63741" /><path d="M 582.10 0.00 L 609.23 0.00 C 609.23 194.00 609.23 388.00 609.23 582.00 L 582.10 582.00 C 582.10 388.00 582.10 194.00 582.10 0.00 Z" fill="#ffffff" /><path d="M 609.23 0.00 L 1191.55 0.00 C 1191.55 194.00 1191.55 388.00 1191.55 582.00 L 609.23 582.00 C 609.23 388.00 609.23 194.00 609.23 0.00 Z" fill="#e63741" /><path d="M 1191.55 0.00 L 1218.64 0.00 C 1218.64 194.00 1218.64 388.00 1218.64 582.00 L 1191.55 582.00 C 1191.55 388.00 1191.55 194.00 1191.55 0.00 Z" fill="#ffffff" /><path d="M 1218.64 0.00 L 1801.00 0.00 L 1801.00 582.00 L 1218.64 582.00 C 1218.64 388.00 1218.64 194.00 1218.64 0.00 Z" fill="#e63741" /><path d="M 26.16 168.73 C 100.40 168.71 174.63 168.71 248.86 168.73 C 248.87 193.40 248.87 218.08 248.86 242.75 C 232.82 242.75 216.79 242.76 200.75 242.75 C 200.70 234.46 200.82 226.17 200.68 217.89 C 180.24 217.89 159.80 217.78 139.37 217.94 C 139.29 233.35 139.35 248.75 139.34 264.16 C 154.94 264.23 170.54 264.07 186.14 264.24 C 186.15 280.63 186.15 297.01 186.14 313.40 C 170.54 313.50 154.94 313.41 139.34 313.45 C 139.34 330.32 139.29 347.19 139.37 364.06 C 149.07 364.23 158.78 364.08 168.48 364.13 C 168.49 380.51 168.50 396.90 168.48 413.28 C 121.04 413.28 73.60 413.29 26.16 413.27 C 26.15 396.89 26.16 380.52 26.16 364.14 C 34.41 364.13 42.66 364.12 50.91 364.15 C 50.99 362.43 51.07 360.72 51.10 359.00 C 51.08 317.00 51.10 275.00 51.09 233.00 C 51.06 227.94 51.22 222.91 50.91 217.86 C 42.66 217.88 34.41 217.87 26.16 217.86 C 26.16 201.48 26.15 185.11 26.16 168.73 Z" fill="#ffffff" /><path d="M 274.78 168.73 C 333.18 168.69 391.59 168.74 450.00 168.71 C 460.41 168.50 470.88 169.77 481.04 172.00 C 496.72 175.58 511.92 182.09 523.62 193.37 C 533.28 202.45 539.60 214.84 541.26 227.99 C 542.81 239.87 541.39 252.05 535.73 262.72 C 528.92 276.14 516.51 285.97 502.90 291.89 C 512.94 315.19 523.23 338.40 533.31 361.69 C 534.02 362.94 534.11 364.25 535.90 364.11 C 542.65 364.24 549.40 364.01 556.15 364.21 C 556.14 380.55 556.16 396.90 556.14 413.25 C 526.35 413.32 496.56 413.26 466.77 413.28 C 453.71 379.26 440.70 345.21 427.73 311.15 C 414.25 311.08 400.77 311.13 387.29 311.13 C 387.33 328.78 387.22 346.44 387.35 364.09 C 395.32 364.18 403.30 364.10 411.28 364.14 C 411.29 380.52 411.30 396.89 411.28 413.27 C 365.78 413.28 320.28 413.29 274.78 413.27 C 274.76 396.90 274.77 380.53 274.77 364.15 C 282.75 364.11 290.74 364.14 298.72 364.14 C 298.84 315.39 298.84 266.61 298.72 217.86 C 290.74 217.86 282.75 217.89 274.77 217.85 C 274.77 201.47 274.76 185.10 274.78 168.73 Z" fill="#ffffff" /><path d="M 665.46 168.72 C 729.53 168.73 793.60 168.70 857.67 168.73 C 857.67 185.11 857.67 201.48 857.67 217.86 C 847.49 217.89 837.32 217.84 827.15 217.88 C 842.04 266.60 857.61 315.18 872.59 363.88 C 879.54 364.42 886.56 364.00 893.53 364.14 C 893.52 380.52 893.56 396.90 893.51 413.28 C 851.55 413.28 809.59 413.29 767.63 413.27 C 767.61 396.89 767.61 380.52 767.63 364.14 C 775.35 364.12 783.07 364.15 790.79 364.12 C 788.06 353.89 784.78 343.81 781.91 333.61 C 759.50 333.51 737.09 333.59 714.68 333.57 C 711.46 343.75 707.91 353.85 704.95 364.12 C 712.67 364.16 720.40 364.12 728.13 364.14 C 728.15 380.52 728.15 396.90 728.13 413.27 C 695.28 413.29 662.43 413.29 629.58 413.27 C 629.57 396.89 629.57 380.52 629.58 364.14 C 636.28 363.99 643.05 364.46 649.72 363.83 C 665.58 315.14 681.85 266.56 697.70 217.88 C 686.95 217.85 676.19 217.89 665.44 217.86 C 665.45 201.48 665.42 185.10 665.46 168.72 Z" fill="#ffffff" /><path d="M 921.44 168.70 C 950.95 168.74 980.46 168.69 1009.97 168.73 C 1040.23 210.04 1070.53 251.32 1100.82 292.61 C 1100.87 267.70 1100.94 242.78 1100.78 217.86 C 1094.23 217.86 1087.67 217.87 1081.12 217.86 C 1081.11 201.48 1081.11 185.10 1081.12 168.73 C 1111.15 168.72 1141.18 168.70 1171.20 168.74 C 1171.22 185.10 1171.21 201.47 1171.21 217.83 C 1164.89 217.90 1158.57 217.85 1152.24 217.86 C 1152.05 282.98 1152.23 348.14 1152.16 413.26 C 1129.34 413.33 1106.52 413.25 1083.70 413.30 C 1053.79 369.50 1024.05 325.55 994.23 281.69 C 994.23 309.17 994.13 336.66 994.28 364.14 C 1001.38 364.14 1008.48 364.12 1015.58 364.14 C 1015.57 380.52 1015.60 396.90 1015.56 413.28 C 983.92 413.27 952.28 413.29 920.63 413.27 C 920.62 396.89 920.62 380.52 920.63 364.14 C 927.24 364.13 933.84 364.14 940.44 364.13 C 940.53 315.38 940.53 266.62 940.44 217.87 C 934.09 217.86 927.75 217.88 921.40 217.86 C 921.43 201.47 921.34 185.09 921.44 168.70 Z" fill="#ffffff" /><path d="M 1243.68 168.73 C 1287.02 168.72 1330.37 168.71 1373.71 168.73 C 1373.72 185.11 1373.71 201.48 1373.71 217.86 C 1366.25 217.89 1358.79 217.83 1351.33 217.90 C 1351.22 240.41 1351.24 262.92 1351.32 285.43 C 1373.59 264.67 1395.88 243.92 1418.16 223.17 C 1420.01 221.51 1421.79 219.78 1423.47 217.94 C 1417.56 217.79 1411.63 217.90 1405.72 217.86 C 1405.71 201.48 1405.70 185.10 1405.72 168.73 C 1442.42 168.71 1479.11 168.71 1515.81 168.73 C 1515.82 185.10 1515.82 201.48 1515.81 217.86 C 1510.51 217.93 1505.20 217.77 1499.90 217.89 C 1497.98 217.76 1496.31 219.75 1494.92 220.87 C 1472.30 240.61 1449.67 260.36 1427.02 280.07 C 1436.91 290.14 1447.21 299.82 1457.16 309.84 C 1475.83 327.79 1494.11 346.23 1512.77 364.19 C 1518.44 364.09 1524.11 364.14 1529.78 364.14 C 1529.78 380.52 1529.78 396.90 1529.78 413.27 C 1487.67 413.31 1445.56 413.24 1403.45 413.31 C 1403.30 396.92 1403.43 380.53 1403.39 364.14 C 1410.20 364.10 1417.02 364.19 1423.84 364.09 C 1399.81 339.74 1375.46 315.63 1351.28 291.42 C 1351.29 315.65 1351.19 339.88 1351.33 364.10 C 1358.45 364.17 1365.56 364.11 1372.68 364.14 C 1372.68 380.52 1372.68 396.89 1372.68 413.27 C 1329.68 413.30 1286.68 413.28 1243.68 413.27 C 1243.66 396.90 1243.66 380.52 1243.68 364.14 C 1252.26 364.12 1260.84 364.14 1269.42 364.13 C 1269.51 315.38 1269.51 266.62 1269.42 217.87 C 1260.84 217.86 1252.26 217.88 1243.68 217.86 C 1243.66 201.48 1243.66 185.10 1243.68 168.73 Z" fill="#ffffff" /><path d="M 1557.22 168.73 C 1630.10 168.71 1702.97 168.71 1775.85 168.73 C 1775.86 193.74 1775.86 218.75 1775.85 243.76 C 1758.35 243.76 1740.84 243.77 1723.34 243.76 C 1723.31 235.13 1723.38 226.50 1723.30 217.87 C 1703.72 217.86 1684.14 217.87 1664.56 217.87 C 1664.44 234.16 1664.52 250.46 1664.52 266.76 C 1680.60 266.75 1696.68 266.74 1712.75 266.76 C 1712.76 281.78 1712.76 296.80 1712.75 311.82 C 1696.68 311.83 1680.61 311.81 1664.54 311.82 C 1664.49 329.26 1664.46 346.70 1664.56 364.13 C 1684.14 364.13 1703.72 364.14 1723.30 364.13 C 1723.40 353.25 1723.29 342.37 1723.36 331.50 C 1740.86 331.52 1758.36 331.49 1775.86 331.51 C 1775.85 358.77 1775.86 386.02 1775.85 413.27 C 1702.97 413.29 1630.10 413.29 1557.22 413.27 C 1557.21 396.89 1557.22 380.52 1557.22 364.14 C 1565.74 364.13 1574.26 364.14 1582.78 364.14 C 1582.91 315.39 1582.91 266.61 1582.78 217.86 C 1574.26 217.86 1565.74 217.87 1557.22 217.86 C 1557.22 201.48 1557.21 185.11 1557.22 168.73 Z" fill="#ffffff" /><path d="M 748.80 217.61 C 756.83 243.15 765.24 268.58 773.38 294.08 C 757.45 294.10 741.52 294.10 725.59 294.08 C 733.44 268.63 740.78 243.00 748.80 217.61 Z" fill="#e63741" /><path d="M 388.07 218.77 C 395.38 218.83 402.70 218.63 410.00 218.86 C 420.02 219.50 431.20 221.26 439.27 227.72 C 449.79 235.94 450.50 253.72 440.89 262.89 C 435.88 267.88 428.59 270.51 421.78 271.85 C 411.00 273.98 399.05 273.37 388.07 273.45 C 388.07 255.22 388.06 237.00 388.07 218.77 Z" fill="#e63741" /></svg>