<svg width="599" height="185" viewBox="0 0 599 185" fill="none" xmlns="http://www.w3.org/2000/svg"><path d="M519.55 124.77C519.818 122.359 519.955 119.936 519.96 117.51C519.96 80.46 489.24 50.42 451.35 50.42C413.46 50.42 382.73 80.42 382.73 117.51C382.73 154.6 413.45 184.6 451.35 184.6C464.921 184.68 478.211 180.732 489.538 173.255C500.865 165.779 509.719 155.11 514.98 142.6L485.41 137.42C482.208 143.438 477.441 148.479 471.611 152.012C465.782 155.544 459.106 157.437 452.29 157.49C433.49 157.49 417.91 143.35 414.78 124.76L519.55 124.77ZM452.29 78.27C468.35 78.27 482.08 88.61 487.67 103.27H416.88C422.46 88.64 436.21 78.27 452.29 78.27Z" fill="#004EA2" /><path d="M364.29 53.23H329.26V182.18H364.29V53.23Z" fill="#004EA2" /><path d="M346.79 0.649994C342.928 0.649996 339.153 1.79492 335.942 3.94002C332.731 6.08512 330.227 9.13411 328.749 12.7016C327.27 16.2691 326.882 20.1949 327.634 23.9828C328.386 27.7707 330.244 31.2506 332.973 33.9827C335.702 36.7148 339.181 38.5765 342.968 39.3323C346.755 40.0881 350.681 39.7042 354.25 38.2291C357.819 36.754 360.871 34.2539 363.019 31.0448C365.167 27.8358 366.316 24.0618 366.32 20.2C366.32 15.0185 364.263 10.0489 360.601 6.38313C356.939 2.71737 351.972 0.655295 346.79 0.649994" fill="#004EA2" /><path d="M114.8 11.88V81.3H39.26V11.88H0.960022V182.07H39.26V112.65H114.8V182.07H153.13V11.88H114.8Z" fill="#004EA2" /><path d="M272.94 53.29V60.2C262.804 54.0516 251.219 50.7001 239.366 50.487C227.513 50.2739 215.815 53.2068 205.464 58.987C195.114 64.7671 186.481 73.1879 180.444 83.3911C174.408 93.5944 171.185 105.215 171.102 117.07C171.02 128.925 174.082 140.59 179.976 150.876C185.869 161.162 194.385 169.702 204.654 175.625C214.923 181.549 226.579 184.644 238.434 184.596C250.289 184.547 261.919 181.357 272.14 175.35V182.07H306.32V53.29H272.94ZM239.74 156.29C232.086 156.197 224.631 153.842 218.313 149.521C211.995 145.2 207.096 139.107 204.234 132.008C201.372 124.908 200.674 117.121 202.228 109.626C203.782 102.132 207.519 95.264 212.968 89.8884C218.417 84.5129 225.335 80.8696 232.851 79.4174C240.366 77.9652 248.143 78.7688 255.202 81.7272C262.262 84.6856 268.288 89.6665 272.523 96.0428C276.758 102.419 279.011 109.906 279 117.56C278.97 122.682 277.931 127.747 275.943 132.467C273.956 137.187 271.058 141.47 267.415 145.07C263.772 148.67 259.456 151.517 254.712 153.449C249.969 155.381 244.892 156.36 239.77 156.33" fill="#004EA2" /><path d="M592.41 41.24C576.5 44.0756 562.08 52.3794 551.642 64.7167C541.203 77.0541 535.402 92.65 535.24 108.81V182.18H568.78V107.43C568.786 99.2541 571.778 91.3621 577.194 85.2372C582.61 79.1124 590.076 75.1768 598.19 74.17L592.41 41.24Z" fill="#004EA2" /></svg>