<?xml version="1.0" encoding="utf-8"?><svg version="1.1" id="Layer_1" xmlns="http://www.w3.org/2000/svg" xmlns:xlink="http://www.w3.org/1999/xlink" x="0px" y="0px" viewBox="0 0 383 101.1" style="enable-background:new 0 0 383 101.1;" xml:space="preserve">
<style type="text/css">
	.st0{fill:#262524;}
</style>
<g>
	<g>
		<path class="st0" d="M53.9,36.4c0-10.4-6.1-18-15.9-18S22,26,22,36.4s6.1,18,15.9,18S53.9,46.9,53.9,36.4 M2.5,36.4    C2.5,16.7,18.1,2.3,38,2.3c19.9,0,35.5,14.4,35.5,34.2S57.9,70.6,38,70.6C18.1,70.6,2.5,56.2,2.5,36.4" />
		<path class="st0" d="M78.1,6.3h18.3v7.1c3.8-6,9.9-8.8,17.5-8.8c8.4,0,14.2,3.7,17.7,10.6c5.3-7.3,12.6-10.6,22.6-10.6    c14.4,0,23.2,10.2,23.2,25.9v38.2h-18.3V32.4c0-7.1-2.4-11.3-10-11.3c-8.2,0-12.2,4.7-12.2,14.1v33.6h-18.3V32.4    c0-7.1-2.4-11.3-10-11.3c-8.2,0-12.2,4.7-12.2,14.1v33.6H78.1V6.3z" />
		<path class="st0" d="M228.4,30.9c-1.3-6.4-5.8-11-13.7-11c-7.5,0-12.8,3.8-14.6,11H228.4z M216.1,55c8,0,12.8-3.1,16.3-6l11,11    c-5.7,6-13.9,10.4-26.8,10.4c-21.7,0-35.6-13.9-35.6-32.9c0-19,14.8-32.9,33.8-32.9c21.9,0,34.3,17.3,32.9,39.1h-47.7    C201.7,50.7,207,55,216.1,55" />
		<path class="st0" d="M299.6,37.5c0-10.2-5.7-16.8-15-16.8c-9.3,0-15.3,6.6-15.3,16.8c0,10.2,6,16.8,15.3,16.8    C293.9,54.3,299.6,47.7,299.6,37.5 M251.2,80.9l14.5-8.6c4.2,7.5,9.9,11.4,17.6,11.4c9.9,0,15.9-4.6,15.9-16.3v-5.8    c-3.5,5.5-9.9,8.8-19.4,8.8c-16.2,0-29.4-13.9-29.4-32.9s13.1-32.9,29.4-32.9c9.5,0,15.9,3.3,19.4,8.8V6.3h18.3v61.1    c0,20.6-12.2,32.7-33.4,32.7C268.9,100.1,258.3,93.9,251.2,80.9" />
		<path class="st0" d="M346.5,43.7c-4.7,0-7.3,2.4-7.3,6c0,3.5,2.4,6,8.4,6c8.2,0,14.2-4.4,14.2-9.5v-2.6H346.5z M350.3,20    c-6.6,0-11.3,2.6-15,6.8l-11.1-10.2c6.9-7.9,16.1-11.9,27.2-11.9c17.7,0,28.7,9.1,28.7,27.6v36.5h-18.3v-5.7    c-4.2,4.9-10.2,7.3-17.5,7.3c-12.6,0-23.2-6.2-23.2-20.8c0-12.2,10.8-18.3,24.5-18.3h16.2C361.7,22.9,356.9,20,350.3,20" />
	</g>
	<rect x="11.6" y="73.4" class="st0" width="52.9" height="7.3" />
</g>
</svg>