<svg id="Layer_1" data-name="Layer 1" xmlns="http://www.w3.org/2000/svg" viewBox="0 0 399.81 73.31"><defs><style>.cls-1{fill:#0079c1;}</style></defs><title>Philips2</title><path class="cls-1" d="M265.9,249.73c0,9.13-4.42,15.31-15.6,15.31h-3.53V236c1.25-.07,2.43-.07,3.53-.07,10.59,0,15.6,5,15.6,13.83m-11.48,28c20,0,32.65-10.31,32.65-28.26,0-19.73-13.53-26.79-35.59-26.79a240.16,240.16,0,0,0-26.19,1.47v70.37h21.48V277.7Zm287.72-28c0,9.13-4.41,15.31-15.6,15.31H523V236c1.25-.07,2.42-.07,3.52-.07,10.59,0,15.6,5,15.6,13.83m-11.47,28c20,0,32.65-10.31,32.65-28.26,0-19.73-13.53-26.79-35.6-26.79a240,240,0,0,0-26.18,1.47v70.37H523V277.7Zm60.59-35.62c0-3.83,3.83-5.6,10-5.6A53.81,53.81,0,0,1,620.39,240l-1.76-15.31a84,84,0,0,0-19.71-2.06c-17.36,0-29.13,6.84-29.13,21.2,0,24.72,33.55,19.72,33.55,31.2,0,4.42-3.25,6.77-11.19,6.77-7,0-17.95-2.35-24.42-5.59l2.36,16.2c6.47,2.35,15.29,3.53,22.36,3.53,17.94,0,32.65-5.89,32.65-23.56,0-23.55-33.84-19.14-33.84-30.32m-105.9-18H463.89v70.37h21.47Zm-87.08,0H376.8v70.37h21.48Zm37.36,56.23V224.12H414.16v70.37H453l3.23-14.14Zm-74.72-56.23H339.44v28H317.08v-28H295.6v70.37h21.48V266.81h22.36v27.68h21.48Z" transform="translate(-225.29 -222.65)" /></svg>