<svg id="Pioneer_DJ_Logo_Vector" data-name="Pioneer DJ Logo Vector" xmlns="http://www.w3.org/2000/svg" viewBox="0 0 1019.9 143"><defs><style>.cls-1{fill:#b6284a;fill-rule:evenodd;}</style></defs><title>PioneerDJ</title><g id="Pioneer_DJ_Original_" data-name="Pioneer DJ (Original)"><g id="Pioneer_DJ" data-name="Pioneer DJ"><path class="cls-1" d="M261.33,43.71c-33.6,0-61.74,16.19-61.65,33.91.18,19.12,25.67,31.72,57.39,31.63,32.09-.2,59.95-15.6,60.68-33.86C318,57.41,292.68,43.71,261.33,43.71Zm21.61,32.6c-.84,9-13.2,13.83-24.77,14.28-13.4,0-23.86-5.9-23.86-13.65-.12-7.42,11.18-14.18,24.49-14.48C273,62.36,283.39,68.34,282.94,76.31ZM167.85,46.69l-21.54,59.58H179l21.53-59.58ZM678.46,65.93l-14.54,40.34h31.65s8.73-24.17,12-33.27c2.74-7.5,8.25-8.83,11.63-8.83h23.1l6.28-17.48H706.93C684.73,46.69,678.46,65.93,678.46,65.93ZM385,43.72C336.76,43.91,329.41,72,329,72.85c-.54,1.43-12.11,33.42-12.11,33.42h31.37s6.76-18.49,11.7-32c3.52-8.81,11.64-12,20.25-12.28,13,.33,14.75,7.89,12.67,13l-11.27,31.35h31.57S422.37,80.76,425,73.48C429.63,61.3,422.67,43.07,385,43.72ZM160.43,39.79C162.35,27.73,150.82,2.69,98.26,2,75.52,2,58.9,7.25,47.49,15.44,30.36,27.73,23.56,47.67,22.73,49.74,20.84,54.74,2,106.27,2,106.27H36.41S48.18,73.83,56.16,51.55C62.34,34.29,74.67,26,97.6,26c27.63-.27,29,11.22,29,12.6,0,10.14-17.83,12.94-28.59,12.94-17.17,0-34.21-4.34-34.21-4.34s3.5,16.64,5.5,24.8a168.55,168.55,0,0,0,30.6,3.35C154.45,75.45,159.53,44.89,160.43,39.79Zm453.23,52.8c-27-1.23-35.76-8.51-35.42-17.33,5.17,3.5,17.65,9.4,38.74,9.34,35.5-.78,49.91-8.61,51.35-15.94C669.66,58.35,648.71,44,615,43.71c-40.22.43-60,18.85-60.52,33.95-.19,17.77,24.52,32.3,61.4,31.57,22.32.08,37.21-4.63,39.28-5.44.54-1.34,4.33-11.82,6.75-18.56C658.29,86.55,639.37,92.89,613.66,92.59Zm1.48-33.2c11,.09,22.21,2.76,22,5.64-.18,2.53-4.89,4.32-19.78,4-11.54-.4-22-2.31-27.45-5A68.51,68.51,0,0,1,615.14,59.39ZM959.57,43C959.84,22,944,5.28,899.84,5H844.61L807.72,106.27h53.61C941.8,106.27,959,58.32,959.57,43ZM920.4,46.56c-2.53,23.52-25,43.87-63.61,44.17-5.18,0-7.09-3.38-5.36-7.92L872.12,26a8.08,8.08,0,0,1,7.74-5.4h14.92C909.05,20.58,921.79,28.61,920.4,46.56ZM494.24,43.71c-40.22.43-60,18.85-60.51,33.95-.2,17.77,24.52,32.3,61.39,31.57,22.32.08,37.21-4.63,39.28-5.44.55-1.34,4.34-11.82,6.76-18.56-3.62,1.32-22.55,7.66-48.25,7.36-27-1.23-35.77-8.51-35.43-17.33,5.17,3.5,17.65,9.4,38.74,9.34,35.51-.78,49.92-8.61,51.36-15.94C548.9,58.35,528,44,494.24,43.71Zm2.4,25.34c-11.55-.4-22.06-2.31-27.45-5a68.47,68.47,0,0,1,25.2-4.7c11,.09,22.2,2.76,22,5.64C516.23,67.56,511.53,69.35,496.64,69.05ZM970.06,43.71l-5,13.7h9.43c3.95,0,6,3.2,4.55,7.15l-16.56,45.26c-7,18.56-33.92,19.37-37.27,19.37H914L908.09,145h34.76c34.75,0,47.65-16.56,52.67-29.18,4.85-13.37,26.38-72.11,26.38-72.11Z" transform="translate(-2 -2)" /></g></g></svg>