<svg width="177" height="26" viewBox="0 0 177 26" fill="none" xmlns="http://www.w3.org/2000/svg"><path fill-rule="evenodd" clip-rule="evenodd" d="M0.52999 24.87H8.72999L13.89 10.72C13.89 10.72 15.09 5.89 23.19 5.89C30.63 5.89 30 8.6 30 9C30 9.4 29.51 11.82 23.69 11.82C17.87 11.82 15.27 10.82 15.27 10.82L16.52 16.82C16.52 16.82 22.14 17.59 24.67 17.59C26.9 17.59 38.15 16.33 38.15 8.45C38.15 3.45 31.41 0.25 23.31 0.25C13.86 0.25 8.46999 3.87 6.08999 9.82L0.48999 24.82L0.52999 24.87Z" fill="#231F20" /><path fill-rule="evenodd" clip-rule="evenodd" d="M40.04 10.86L34.82 24.87H42.48L47.7 10.86H40.04Z" fill="#231F20" /><path fill-rule="evenodd" clip-rule="evenodd" d="M75 17.52C75 23.14 65.59 25.61 60.16 25.61C57.49 25.61 47.23 24.15 47.23 18.12C47.23 12.09 57.45 10.12 61.57 10.12C66.19 10.12 75 11.88 75 17.51V17.52ZM61.08 14.52C59.23 14.52 55.38 15.52 55.38 17.94C55.38 20.36 58.8 21.15 60.81 21.15C62.82 21.15 66.81 20.15 66.81 17.78C66.81 15.41 63.17 14.52 61.05 14.52H61.08Z" fill="#231F20" /><path fill-rule="evenodd" clip-rule="evenodd" d="M74.54 24.87H82L85 16.76C85.2 16.08 86.25 14.42 89.51 14.42C93.29 14.42 92.83 16.72 92.61 17.3L89.83 24.87H97.23L100.1 17.08C100.1 17.08 102.5 10.24 91.1 10.24C79.41 10.24 77.73 16.24 77.73 16.24L74.46 24.9L74.54 24.87Z" fill="#231F20" /><path fill-rule="evenodd" clip-rule="evenodd" d="M116.77 13.93C121.17 13.93 121.34 15.29 121.34 15.29C121.34 15.29 122.15 16.21 117.21 16.21C112.27 16.21 110.3 15 110.3 15C112.372 14.2434 114.565 13.8739 116.77 13.91V13.93ZM116 10.24C110.78 10.24 101.87 12.41 101.87 18.55C101.87 23.77 111.59 25.67 114.53 25.67C122.25 25.67 125.67 24.47 125.67 24.47L127.25 20.13C123.751 21.2379 120.1 21.7847 116.43 21.75C106.76 21.75 107.43 17.68 107.43 17.68C107.43 17.68 110.09 19.85 116.56 19.85C123.03 19.85 128.68 18.5 128.68 15.85C128.68 13.2 123.17 10.2 115.96 10.2L116 10.24Z" fill="#231F20" /><path fill-rule="evenodd" clip-rule="evenodd" d="M156.39 24.87H163.83L166.55 17.3C166.69 16.728 167.007 16.2149 167.456 15.8341C167.905 15.4533 168.463 15.2244 169.05 15.18H174.86L176.28 10.86H165.79C164.419 11.0364 163.124 11.5896 162.049 12.4582C160.974 13.3269 160.161 14.4768 159.7 15.78C157.85 20.45 156.39 24.87 156.39 24.87V24.87Z" fill="#231F20" /><path fill-rule="evenodd" clip-rule="evenodd" d="M156.9 16C156.9 18.61 151.25 20 144.79 20C138.33 20 135.65 17.83 135.65 17.83C135.65 17.83 134.95 21.91 144.65 21.91C148.32 21.9447 151.973 21.3945 155.47 20.28L153.89 24.62C153.89 24.62 150.46 25.82 142.75 25.82C139.81 25.82 130.09 23.92 130.09 18.7C130.09 12.56 138.99 10.39 144.22 10.39C151.42 10.39 156.93 13.39 156.93 16.04L156.9 16ZM138.48 15.13C138.48 15.13 140.48 16.32 145.38 16.32C150.28 16.32 149.51 15.4 149.51 15.4C149.51 15.4 149.35 14 145 14C142.795 13.9618 140.601 14.3314 138.53 15.09L138.48 15.13Z" fill="#231F20" /></svg>