<?xml version="1.0" encoding="UTF-8"?><svg width="455px" height="72px" viewBox="0 0 455 72" version="1.1" xmlns="http://www.w3.org/2000/svg" xmlns:xlink="http://www.w3.org/1999/xlink"><title>siemens</title><desc>Created with Sketch.</desc><defs></defs><g id="Page-1" stroke="none" stroke-width="1" fill="none" fill-rule="evenodd"><g id="siemens" fill="#00AAAD"><g id="Siemens"><path d="M1.55,69.36 L1.55,55.69 C9.33,58.1433333 16.2133333,59.37 22.2,59.37 C30.4666667,59.37 34.6,57.1833333 34.6,52.81 C34.6257613,51.2443044 33.96428,49.7459213 32.79,48.71 C31.5633333,47.57 28.41,45.94 23.33,43.82 C14.2233333,40.0733333 8.28666667,36.88 5.52,34.24 C1.95590344,30.7933728 0.00681962003,26.0059583 0.15,21.05 C0.15,14.1966667 2.76666667,8.98333333 8,5.41 C13.2333333,1.83666667 19.94,0.06 28.12,0.08 C32.7066667,0.08 39.3066667,0.92 47.92,2.6 L47.92,15.74 C42.2443184,13.3349012 36.162833,12.0317258 30,11.9 C22.24,11.9 18.36,14.0333333 18.36,18.3 C18.3779215,19.9299205 19.2720399,21.4239389 20.7,22.21 C22.0333333,23.03 25.62,24.7566667 31.46,27.39 C39.9133333,31.13 45.54,34.39 48.34,37.17 C51.7064859,40.5443249 53.5178169,45.1668417 53.34,49.93 C53.34,57.43 50.08,63.15 43.56,67.09 C38.2733333,70.29 31.42,71.8866667 23,71.88 C15.7770804,71.8643444 8.57987899,71.018799 1.55,69.36 Z" id="Shape"></path><polygon id="Shape" points="64.24 70.48 64.24 1.28 83.57 1.28 83.57 70.48 64.24 70.48"></polygon><polygon id="Shape" points="101.3 70.48 101.3 1.28 150.87 1.28 150.87 13.8 119.92 13.8 119.92 29.42 146.86 29.42 146.86 40.84 119.92 40.84 119.92 57.26 151.67 57.26 151.67 70.48 101.3 70.48"></polygon><polygon id="Shape" points="164.29 70.48 164.29 1.28 189.35 1.28 206.76 45.49 224.61 1.28 248.41 1.28 248.41 70.48 230.09 70.48 230.09 21.49 209.79 71.18 197.81 71.18 177.91 21.49 177.91 70.48 164.29 70.48"></polygon><polygon id="Shape" points="266.14 70.48 266.14 1.28 315.71 1.28 315.71 13.8 284.77 13.8 284.77 29.42 311.7 29.42 311.7 40.84 284.77 40.84 284.77 57.26 316.51 57.26 316.51 70.48 266.14 70.48"></polygon><polygon id="Shape" points="329.23 70.48 329.23 1.28 351.63 1.28 375.4 47.6 375.4 1.28 389.01 1.28 389.01 70.48 367.25 70.48 342.85 23.53 342.85 70.48 329.23 70.48"></polygon><path d="M402.74,69.36 L402.74,55.69 C409.396045,57.9600228 416.35954,59.2009748 423.39,59.37 C431.65,59.37 435.78,57.1833333 435.78,52.81 C435.810412,51.2558461 435.173299,49.7631797 434.03,48.71 C432.79,47.5366667 429.62,45.9066667 424.52,43.82 C415.44,40.1066667 409.503333,36.9133333 406.71,34.24 C403.124316,30.7872791 401.172497,25.9749727 401.34,21 C401.34,14.1933333 403.946667,8.99666667 409.16,5.41 C414.373333,1.82333333 421.09,0.0466666667 429.31,0.08 C435.393243,0.247484574 441.446945,0.990804281 447.39,2.3 L449.1,2.6 L449.1,15.74 C443.398537,13.3277826 437.289505,12.0245223 431.1,11.9 C423.373333,11.9 419.51,14.0333333 419.51,18.3 C419.527921,19.9299205 420.42204,21.4239389 421.85,22.21 C423.09,22.99 426.693333,24.7166667 432.66,27.39 C441.04,31.1433333 446.643333,34.4033333 449.47,37.17 C452.836486,40.5443249 454.647817,45.1668417 454.47,49.93 C454.47,57.43 451.226667,63.15 444.74,67.09 C439.406667,70.29 432.546667,71.8866667 424.16,71.88 C416.933635,71.8667932 409.732842,71.0212201 402.7,69.36 L402.74,69.36 Z" id="Shape"></path></g></g></g></svg>