<svg id="Layer_1" data-name="Layer 1" xmlns="http://www.w3.org/2000/svg" viewBox="0 0 99.12 23.89"><defs><style>.cls-1{fill:#231f20;}</style></defs><title>Thor</title><path class="cls-1" d="M99,15.1a9.3,9.3,0,0,0-9.3-9.29H44.08v0a4,4,0,0,0-4,4h0V15H31.94V10.12c0-.1,0-.2,0-.31a4,4,0,0,0-4-4h0v0H-.12v7.07H7.57V29.47h7.74V12.88H24.2V29.47h7.74V21.75h8.15v7.72h7.73V12.88h5a11.2,11.2,0,0,0-.9,4.48,12.34,12.34,0,1,0,24.67,0,4.22,4.22,0,0,0-.94-2.73H67.84a4.57,4.57,0,1,1-4.11-1.75h26A2.24,2.24,0,0,1,92,15.13a2.55,2.55,0,0,1-2.58,2.23H78.94L89.6,29.5h7.74L91.27,23A7.57,7.57,0,0,0,99,15.1" transform="translate(0.12 -5.81)" /></svg>