<?xml version="1.0" encoding="utf-8"?><svg version="1.1" id="Calque_1" xmlns="http://www.w3.org/2000/svg" xmlns:xlink="http://www.w3.org/1999/xlink" x="0px" y="0px" viewBox="0 0 1063.1 375.3" style="enable-background:new 0 0 1063.1 375.3;" xml:space="preserve">
<style type="text/css">
	.st0{fill:none;stroke:#000000;stroke-width:26.8441;stroke-miterlimit:10;}
	.st1{fill:#ED1C24;}
	.st2{fill:#FFFFFF;}
</style>
<g>
	<g>
		<g>
			<g>
				<path d="M328.9,364.5H9.5V98.3h319.4V364.5z M36.4,337.7h265.7V125.2H36.4V337.7z" />
				<polyline class="st0" points="91.3,282.7 91.3,180.1 171.1,180.1 247.1,180.1 247.1,282.7     " />
				<polygon points="183.3,231.7 183.3,350.5 155.2,350.5 155.2,231.7 117.6,231.7 117.6,206.6 220.8,206.6 220.8,231.7     " />
			</g>
			<g>
				<polygon points="435.6,196.2 435.6,315 407.6,315 407.6,196.2 370,196.2 370,171.1 473.2,171.1 473.2,196.2     " />
				<path d="M532.2,238.4c-4.1-4-7.5-6.3-13.9-6.3c-8.1,0-17,6.1-17,19.4V315h-26.3V209.7h25.7v10.1c5-6.1,15.1-11.3,26.5-11.3      c10.3,0,17.6,2.6,24.9,9.9L532.2,238.4z" />
				<path d="M573.7,196.6c-9.1,0-16.6-7.5-16.6-16.6c0-9.1,7.5-16.4,16.6-16.4c9.1,0,16.4,7.3,16.4,16.4      C590,189.1,582.7,196.6,573.7,196.6 M560.5,209.7h26.2V315h-26.2V209.7z" />
				<path d="M678.3,303.3c-6.5,6.9-17.2,12.9-32.7,12.9c-15.5,0-26.1-6-32.5-12.9c-9.5-9.9-11.9-21.8-11.9-41      c0-19,2.4-30.9,11.9-40.8c6.5-6.9,17-12.9,32.5-12.9c15.6,0,26.3,6.1,32.7,12.9c9.5,9.9,11.9,21.8,11.9,40.8      C690.2,281.5,687.8,293.4,678.3,303.3 M657.9,236.8c-3-3-7.1-4.7-12.3-4.7c-5.2,0-9.1,1.6-12.1,4.7c-5.4,5.5-6.1,14.6-6.1,25.5      c0,10.9,0.6,20.2,6.1,25.6c3,3,6.9,4.6,12.1,4.6c5.3,0,9.3-1.6,12.3-4.6c5.5-5.4,6.1-14.7,6.1-25.6      C664,251.4,663.4,242.3,657.9,236.8" />
				<path d="M825.2,315v-63.6c0-14.4-9.1-19.2-17.4-19.2c-8.1,0-17.6,4.8-17.6,18.6V315H764v-63.6c0-14.4-9.1-19.2-17.4-19.2      c-8.3,0-17.6,4.8-17.6,19.2V315h-26.3V209.7h25.7v9.7c6.9-7.1,16.6-10.9,26.3-10.9c11.7,0,21.2,4.2,27.9,13.3      c8.9-9.3,18.4-13.3,31.5-13.3c10.5,0,20,3.4,25.9,9.3c8.5,8.5,11.5,18.4,11.5,29.9V315H825.2z" />
				<path d="M943.4,306.7c-5.9,5.9-15.4,9.5-25.7,9.5c-10.7,0-18.6-2.8-25.5-10.5v61.9H866V209.7h25.5v9.9      c7.3-8.1,15.2-11.1,26.3-11.1c10.3,0,19.8,3.6,25.7,9.5c10.5,10.5,10.7,28.5,10.7,44.3C954.1,278,953.9,296.2,943.4,306.7       M910.1,232.2c-15.8,0-17.8,12.9-17.8,30.1c0,17.2,2,30.3,17.8,30.3c15.8,0,17.8-13.1,17.8-30.3      C927.9,245.1,925.8,232.2,910.1,232.2" />
				<path d="M1027.3,315v-64.2c0-13.9-8.9-18.6-17.2-18.6c-8.3,0-17,4.8-17,18.6V315h-26.3V171.1h26.3v48.3      c7.1-7.3,15.9-10.9,25.2-10.9c23,0,35.2,16.2,35.2,38.4V315H1027.3z" />
			</g>
			<rect x="370.3" y="339.6" width="481.2" height="28" />
			<rect x="907.4" y="339.6" width="146.2" height="28" />
		</g>
		<polygon points="9.5,98.3 169.4,6.4 328.9,98.3   " />
		<polygon class="st2" points="172,44.3 68.1,98.3 169.2,98.3 272.6,98.3   " />
	</g>
</g>
</svg>